ffmpeg started on 2023-02-27 at 22:04:36
Report written to "D:/java/GitHub/pornMagnetSpringBoot/jiuse911Modeul/Logs/2023-02-27_22-04-17-713_ffreport.log"
Command line:
"D:\\java\\GitHub\\pornMagnetSpringBoot\\ffmpeg.exe" -loglevel warning -i "concat:00.ts|01.ts|02.ts|03.ts|04.ts|05.ts|06.ts|07.ts|08.ts|09.ts|10.ts|11.ts|12.ts|" -map "0:v?" -map "0:a?" -map "0:s?" -metadata "date=2023-02-27T22:04:36.7783470+08:00" -metadata "encoding_tool=" -metadata "title=" -metadata "copyright=" -metadata "comment=" -metadata:s:a:0 "handler_name=" -metadata:s:a:0 "handler=" -c copy -y -bsf:a aac_adtstoasc "D:\\java\\GitHub\\pornMagnetSpringBoot\\Downloads\\\xd6\xd8\xb0\xf5\xd5\xa8\xb5\xaf\xa3\xa120\xc0\xe5\xc3\xd7\xbe\xde\x8c\xc5\xba\xda\xc8\xcb\xb2\xd9\xb1\xb1\xbe\xa9\xbc\xab\xc6\xb7\xbe\xde\xc8\xe9\xc3\xc0\xca\xec\xc5\xae\xa3\xa1.mp4"
ffmpeg version N-94813-g85386c36e3-ffmpeg-for-N_m3u8DL-CLI Copyright (c) 2000-2019 the FFmpeg developers
  built with gcc 8.2.0 (GCC)
  libavutil      56. 35.100 / 56. 35.100
  libavcodec     58. 56.101 / 58. 56.101
  libavformat    58. 32.104 / 58. 32.104
  libavfilter     7. 58.102 /  7. 58.102
  libavresample   4.  0.  0 /  4.  0.  0
  libswresample   3.  6.100 /  3.  6.100
Input #0, mpegts, from 'concat:00.ts|01.ts|02.ts|03.ts|04.ts|05.ts|06.ts|07.ts|08.ts|09.ts|10.ts|11.ts|12.ts|':
  Duration: 00:02:03.49, start: 1.400000, bitrate: 733 kb/s
  Program 1 
    Metadata:
      service_name    : Service01
      service_provider: FFmpeg
    Stream #0:0[0x100]: Video: h264 ([27][0][0][0] / 0x001B), yuv420p(progressive), 480x268, 25 fps, 25 tbr, 90k tbn, 50 tbc
    Stream #0:1[0x101](und): Audio: aac ([15][0][0][0] / 0x000F), 22050 Hz, stereo, fltp, 133 kb/s
Output #0, mp4, to 'D:\java\GitHub\pornMagnetSpringBoot\Downloads\重磅炸弹！20厘米巨屌黑人操北京极品巨乳美熟女！.mp4':
  Metadata:
    date            : 2023-02-27T22:04:36.7783470+08:00
    encoder         : Lavf58.32.104
    Stream #0:0: Video: h264 (avc1 / 0x31637661), yuv420p(progressive), 480x268, q=2-31, 25 fps, 25 tbr, 90k tbn, 90k tbc
    Stream #0:1(und): Audio: aac (mp4a / 0x6134706D), 22050 Hz, stereo, fltp, 133 kb/s
Stream mapping:
  Stream #0:0 -> #0:0 (copy)
  Stream #0:1 -> #0:1 (copy)
Press [q] to stop, [?] for help
frame= 3086 fps=0.0 q=-1.0 Lsize=   10437kB time=00:02:03.50 bitrate= 692.3kbits/s speed=2.38e+03x    
video:8614kB audio:1768kB subtitle:0kB other streams:0kB global headers:0kB muxing overhead: 0.527163%
